<?xml version="1.0" encoding="UTF-8"?>
<!DOCTYPE svg PUBLIC "-//W3C//DTD SVG 1.1//EN" "http://www.w3.org/Graphics/SVG/1.1/DTD/svg11.dtd">
<svg xmlns="http://www.w3.org/2000/svg" version="1.1" width="1080px" height="1080px" style="shape-rendering:geometricPrecision; text-rendering:geometricPrecision; image-rendering:optimizeQuality; fill-rule:evenodd; clip-rule:evenodd" xmlns:xlink="http://www.w3.org/1999/xlink">
<g><path style="opacity:1" fill="#000000" d="M -0.5,-0.5 C 359.5,-0.5 719.5,-0.5 1079.5,-0.5C 1079.5,359.5 1079.5,719.5 1079.5,1079.5C 719.5,1079.5 359.5,1079.5 -0.5,1079.5C -0.5,719.5 -0.5,359.5 -0.5,-0.5 Z"/></g>
<g><path style="opacity:1" fill="#f2f6fc" d="M 70.5,286.5 C 206.167,286.5 341.833,286.5 477.5,286.5C 477.5,320.833 477.5,355.167 477.5,389.5C 430.5,389.5 383.5,389.5 336.5,389.5C 336.5,528.833 336.5,668.167 336.5,807.5C 294.833,807.5 253.167,807.5 211.5,807.5C 211.5,668.167 211.5,528.833 211.5,389.5C 164.5,389.5 117.5,389.5 70.5,389.5C 70.5,355.167 70.5,320.833 70.5,286.5 Z"/></g>
<g><path style="opacity:1" fill="#a5a6ab" d="M 70.5,286.5 C 206.332,285.5 342.332,285.167 478.5,285.5C 478.832,320.337 478.498,355.004 477.5,389.5C 477.5,355.167 477.5,320.833 477.5,286.5C 341.833,286.5 206.167,286.5 70.5,286.5 Z"/></g>
<g><path style="opacity:1" fill="#f2f5fc" d="M 856.5,286.5 C 901.5,286.5 946.5,286.5 991.5,286.5C 991.5,460.167 991.5,633.833 991.5,807.5C 953.833,807.5 916.167,807.5 878.5,807.5C 878.5,741.833 878.5,676.167 878.5,610.5C 878.941,590.792 880.108,571.125 882,551.5C 886.091,517.182 889.924,482.849 893.5,448.5C 892.5,448.5 891.5,448.5 890.5,448.5C 854.685,553.778 817.185,658.444 778,762.5C 754.908,763.494 731.742,763.827 708.5,763.5C 686.502,702.343 664.002,641.343 641,580.5C 626.333,537.167 611.667,493.833 597,450.5C 596.29,449.027 595.124,448.36 593.5,448.5C 600.026,499.017 605.192,549.683 609,600.5C 609.5,669.499 609.667,738.499 609.5,807.5C 572.167,807.5 534.833,807.5 497.5,807.5C 497.5,633.5 497.5,459.5 497.5,285.5C 542.739,285.17 587.905,285.503 633,286.5C 660.137,360.91 687.47,435.244 715,509.5C 725.623,541.532 735.123,573.865 743.5,606.5C 745.451,606.773 746.951,606.107 748,604.5C 758.201,569.361 768.868,534.361 780,499.5C 805.038,428.211 830.538,357.211 856.5,286.5 Z"/></g>
<g><path style="opacity:1" fill="#b1b4b9" d="M 856.5,286.5 C 901.664,285.501 946.997,285.168 992.5,285.5C 992.5,459.5 992.5,633.5 992.5,807.5C 992.167,807.5 991.833,807.5 991.5,807.5C 991.5,633.833 991.5,460.167 991.5,286.5C 946.5,286.5 901.5,286.5 856.5,286.5 Z"/></g>
<g><path style="opacity:1" fill="#5f6063" d="M 70.5,389.5 C 117.5,389.5 164.5,389.5 211.5,389.5C 211.5,528.833 211.5,668.167 211.5,807.5C 210.5,668.668 210.167,529.668 210.5,390.5C 163.664,390.832 116.997,390.499 70.5,389.5 Z"/></g>
<g><path style="opacity:1" fill="#5a5b5e" d="M 878.5,610.5 C 878.5,676.167 878.5,741.833 878.5,807.5C 916.167,807.5 953.833,807.5 991.5,807.5C 991.833,807.5 992.167,807.5 992.5,807.5C 954.337,808.499 916.004,808.832 877.5,808.5C 877.168,742.331 877.501,676.331 878.5,610.5 Z"/></g>
</svg>
