<?xml version="1.0" standalone="no"?>
<!DOCTYPE svg PUBLIC "-//W3C//DTD SVG 20010904//EN"
 "http://www.w3.org/TR/2001/REC-SVG-20010904/DTD/svg10.dtd">
<svg version="1.0" xmlns="http://www.w3.org/2000/svg"
 width="1080.000000pt" height="1080.000000pt" viewBox="0 0 1080.000000 1080.000000"
 preserveAspectRatio="xMidYMid meet">

<g transform="translate(0.000000,1080.000000) scale(0.100000,-0.100000)"
fill="#000000" stroke="none">
<path d="M0 5400 l0 -5400 5400 0 5400 0 0 5400 0 5400 -5400 0 -5400 0 0
-5400z m4790 2015 l0 -515 -710 0 -710 0 0 -2090 0 -2090 -625 0 -625 0 -2
2087 -3 2088 -702 3 -703 2 0 515 0 515 2040 0 2040 0 0 -515z m1947 -585
c434 -1178 483 -1322 618 -1793 81 -279 91 -308 109 -305 21 3 28 26 232 718
30 102 238 701 462 1332 l407 1148 683 0 682 0 0 -2605 0 -2605 -576 0 -576 0
5 1038 c5 1107 5 1118 63 1683 14 140 42 394 63 563 33 278 36 337 12 310 -4
-5 -112 -308 -240 -674 -127 -366 -381 -1072 -564 -1570 l-333 -905 -345 -3
-345 -2 -362 977 c-216 584 -442 1217 -562 1573 -110 327 -205 599 -210 604
-5 5 -12 7 -16 4 -3 -4 15 -182 40 -397 54 -451 91 -845 106 -1116 5 -105 10
-615 10 -1137 l0 -948 -560 0 -560 0 0 2605 0 2605 677 -2 677 -3 403 -1095z"/>
</g>
</svg>
